# xmcd
#
# Track frame offsets:
#	150
#	12136
#	33878
#	59460
#	85816
#	107436
#	136350
#	159355
#	202775
#	264777
#	285918
#	304444
#	337305
#
# Disc length: 4781 seconds
#
# Revision: 0
# Processed by: cddbd v1.5.2PL0 Copyright (c) Steve Scherf et al.
# Submitted via: EasyCDDAExtractor 9.0.0.1
#
DISCID=a412ab0d
DTITLE=Ozzy Osbourne - Sun Plaza Hall Tokyo 28-06-84
DYEAR=1984
DGENRE=Hard Rock
TTITLE0=Carmina Burana
TTITLE1=I Don't Know
TTITLE2=Mr Crowley
TTITLE3=Rock and Roll Rebel
TTITLE4=Bark At The Moon
TTITLE5=Revelation (Mother Earth)
TTITLE6=Steal Away (The Night)
TTITLE7=Suicide Solution
TTITLE8=Journey To The Centre Of Eternity Incl Drum Solo
TTITLE9=Flying High Again
TTITLE10=Iron Man
TTITLE11=Crazy Train
TTITLE12=Paranoid
EXTD=
EXTT0=
EXTT1=
EXTT2=
EXTT3=
EXTT4=
EXTT5=
EXTT6=
EXTT7=
EXTT8=
EXTT9=
EXTT10=
EXTT11=
EXTT12=
PLAYORDER=
